SplineFontDB: 3.2
FontName: Exzellenz
FullName: Exzellenz
FamilyName: Exzellenz
Weight: Regular
Copyright: Copyright (c) 2019, Max Lang
UComments: "2019-12-17: Created with FontForge (http://fontforge.org)"
Version: 001.000
ItalicAngle: 0
UnderlinePosition: -102
UnderlineWidth: 51
Ascent: 811
Descent: 213
InvalidEm: 0
LayerCount: 2
Layer: 0 0 "Back" 1
Layer: 1 0 "Fore" 0
XUID: [1021 119 -1597498843 7709205]
StyleMap: 0x0000
FSType: 0
OS2Version: 0
OS2_WeightWidthSlopeOnly: 0
OS2_UseTypoMetrics: 1
CreationTime: 1576616356
ModificationTime: 1680638635
OS2TypoAscent: 0
OS2TypoAOffset: 1
OS2TypoDescent: 0
OS2TypoDOffset: 1
OS2TypoLinegap: 92
OS2WinAscent: 0
OS2WinAOffset: 1
OS2WinDescent: 0
OS2WinDOffset: 1
HheadAscent: 0
HheadAOffset: 1
HheadDescent: 0
HheadDOffset: 1
Lookup: 258 0 0 "kern-lookup" { "left-char-right-full" [153,0,2] "left-char-upper-and-lower-point" [153,15,4] "left-char-upper-bar-and-lower-point" [153,0,4] "left-char-right-upper-bar-only" [153,15,4] "left-char-right-lower-point-only" [153,0,4] "left-char-lower-bar-and-upper-point" [153,0,2] "left-char-upper-point-only" [153,0,2] "left-char-x-like" [153,0,2] "left-char-d-shape" [153,0,2] "space-char" [153,15,0] } ['kern' ('latn' <'dflt' > ) ]
MarkAttachClasses: 1
MarkAttachSets: 2
"left-full" 31 A B C D E F G H K L M N P R U W
"right-full" 11 A H M N U W
DEI: 91125
KernClass2: 2 6 "left-char-d-shape"
 7 B D b d
 71 A a B b C c D d E e F f G g H h K k L l M m N n O o P p Q q R r U u W w
 11 I i J j Z z
 3 S s
 3 T t
 11 V v X x Y y
 0 {} 0 {} 0 {} 0 {} 0 {} 0 {} 0 {} -150 {} -70 {} -70 {} -70 {} -70 {}
KernClass2: 3 6 "left-char-x-like"
 7 V v Y y
 3 X x
 71 A a B b C c D d E e F f G g H h K k L l M m N n O o P p Q q R r U u W w
 11 I i J j Z z
 3 S s
 3 T t
 11 V v X x Y y
 0 {} 0 {} 0 {} 0 {} 0 {} 0 {} 0 {} -30 {} -30 {} -30 {} -80 {} -80 {} 0 {} -30 {} -70 {} -30 {} -80 {} -80 {}
KernClass2: 2 6 "left-char-upper-point-only"
 11 F f J j T t

StartChar: T
Encoding: 84 84 0
Width: 492
VWidth: 0
Flags: HMW
LayerCount: 2
Fore
SplineSet
0 811 m 1
 492 811 l 25
 492 671 l 1
 321 671 l 25
 321 0 l 1
 171 0 l 25
 171 671 l 25
 0 671 l 25
 0 811 l 1
EndSplineSet
Validated: 1
EndChar

StartChar: U
Encoding: 85 85 1
Width: 471
VWidth: 0
Flags: MW
LayerCount: 2
Fore
SplineSet
0 0 m 1
 0 811 l 1
 150 811 l 1
 150 140 l 1
 321 140 l 1
 321 811 l 1
 471 811 l 1
 471 0 l 1
 0 0 l 1
EndSplineSet
Validated: 1
EndChar

StartChar: O
Encoding: 79 79 2
Width: 471
VWidth: 0
Flags: HMW
LayerCount: 2
Fore
SplineSet
150 140 m 1
 321 140 l 1
 321 671 l 1
 150 671 l 1
 150 140 l 1
0 0 m 1
 0 811 l 1
 471 811 l 1
 471 0 l 1
 0 0 l 1
EndSplineSet
Validated: 1
EndChar

StartChar: M
Encoding: 77 77 3
Width: 792
VWidth: 0
Flags: HMW
LayerCount: 2
Fore
SplineSet
792 811 m 17
 792 0 l 1
 640 0 l 1
 640 671 l 1
 471 671 l 1
 471 0 l 1
 321 0 l 1
 321 671 l 1
 150 671 l 1
 150 0 l 1
 0 0 l 1
 0 811 l 9
 792 811 l 17
EndSplineSet
Validated: 1
EndChar

StartChar: A
Encoding: 65 65 4
Width: 471
VWidth: 0
Flags: HMW
LayerCount: 2
Fore
SplineSet
321 484 m 1
 321 671 l 1
 150 671 l 1
 150 484 l 1
 321 484 l 1
471 811 m 1
 471 0 l 1
 321 0 l 1
 321 344 l 1
 150 344 l 1
 150 0 l 1
 0 0 l 1
 0 811 l 1
 471 811 l 1
EndSplineSet
Validated: 1
EndChar

StartChar: B
Encoding: 66 66 5
Width: 471
VWidth: 0
Flags: HMW
LayerCount: 2
Fore
SplineSet
471 0 m 1
 0 0 l 25
 0 811 l 1
 404 811 l 1
 471 714 l 1
 471 0 l 1
150 140 m 1
 321 140 l 1
 321 344 l 1
 150 344 l 1
 150 140 l 1
150 484 m 1
 321 484 l 1
 321 639 l 1
 299 671 l 1
 150 671 l 1
 150 484 l 1
EndSplineSet
Validated: 1
EndChar

StartChar: C
Encoding: 67 67 6
Width: 432
VWidth: 0
Flags: HMW
LayerCount: 2
Fore
SplineSet
432 0 m 1
 0 0 l 1
 0 811 l 1
 432 811 l 1
 432 671 l 1
 149 671 l 1
 149 140 l 1
 432 140 l 1
 432 0 l 1
EndSplineSet
Validated: 1
EndChar

StartChar: D
Encoding: 68 68 7
Width: 471
VWidth: 0
Flags: HMW
LayerCount: 2
Fore
SplineSet
471 0 m 1
 0 0 l 25
 0 811 l 1
 404 811 l 1
 471 714 l 1
 471 0 l 1
321 639 m 1
 299 671 l 1
 150 671 l 1
 150 140 l 1
 321 140 l 1
 321 639 l 1
EndSplineSet
Validated: 1
EndChar

StartChar: E
Encoding: 69 69 8
Width: 471
VWidth: 0
Flags: HMW
LayerCount: 2
Fore
SplineSet
394 344 m 1
 150 344 l 1
 150 140 l 1
 471 140 l 1
 471 0 l 1
 0 0 l 1
 0 811 l 1
 471 811 l 1
 471 671 l 1
 150 671 l 1
 150 484 l 1
 394 484 l 1
 394 344 l 1
EndSplineSet
Validated: 1
EndChar

StartChar: F
Encoding: 70 70 9
Width: 471
VWidth: 0
Flags: HMW
LayerCount: 2
Fore
SplineSet
344 344 m 1
 150 344 l 1
 150 0 l 1
 0 0 l 1
 0 811 l 1
 471 811 l 1
 471 671 l 1
 150 671 l 1
 150 484 l 1
 344 484 l 1
 344 344 l 1
EndSplineSet
Validated: 1
EndChar

StartChar: G
Encoding: 71 71 10
Width: 502
VWidth: 0
Flags: HMW
LayerCount: 2
Fore
SplineSet
150 671 m 1
 150 140 l 1
 362 140 l 1
 362 324 l 1
 261 324 l 1
 261 484 l 1
 502 484 l 25
 502 0 l 17
 0 0 l 1
 0 811 l 1
 502 811 l 9
 502 671 l 25
 150 671 l 1
EndSplineSet
Validated: 1
EndChar

StartChar: H
Encoding: 72 72 11
Width: 502
VWidth: 0
Flags: HMW
LayerCount: 2
Fore
SplineSet
502 811 m 1
 502 0 l 1
 352 0 l 1
 352 344 l 1
 150 344 l 1
 150 0 l 1
 0 0 l 1
 0 811 l 1
 150 811 l 1
 150 484 l 1
 352 484 l 1
 352 811 l 1
 502 811 l 1
EndSplineSet
Validated: 1
EndChar

StartChar: I
Encoding: 73 73 12
Width: 372
VWidth: 0
Flags: HMW
LayerCount: 2
Fore
SplineSet
372 0 m 1
 0 0 l 1
 0 140 l 1
 111 140 l 5
 111 671 l 5
 0 671 l 1
 0 811 l 1
 372 811 l 1
 372 671 l 1
 261 671 l 5
 261 140 l 5
 372 140 l 1
 372 0 l 1
EndSplineSet
Validated: 1
EndChar

StartChar: J
Encoding: 74 74 13
Width: 492
VWidth: 0
Flags: HMW
LayerCount: 2
Fore
SplineSet
0 811 m 1
 492 811 l 25
 492 671 l 1
 339 671 l 25
 339 0 l 1
 -12 0 l 1
 -12 140 l 1
 189 140 l 1
 189 671 l 9
 0 671 l 25
 0 811 l 1
EndSplineSet
Validated: 1
EndChar

StartChar: K
Encoding: 75 75 14
Width: 471
VWidth: 0
Flags: HMW
LayerCount: 2
Fore
SplineSet
0 811 m 1
 150 811 l 1
 150 456 l 1
 366 811 l 1
 471 811 l 1
 471 671 l 1
 316 426 l 1
 471 150 l 1
 471 0 l 1
 372 0 l 1
 209 274 l 1
 150 162 l 1
 150 0 l 1
 0 0 l 1
 0 811 l 1
EndSplineSet
Validated: 1
EndChar

StartChar: L
Encoding: 76 76 15
Width: 432
VWidth: 0
Flags: HMW
LayerCount: 2
Fore
SplineSet
432 0 m 1
 0 0 l 1
 0 811 l 1
 149 811 l 1
 149 140 l 1
 432 140 l 1
 432 0 l 1
EndSplineSet
Validated: 1
EndChar

StartChar: N
Encoding: 78 78 16
Width: 471
VWidth: 0
Flags: HMW
LayerCount: 2
Fore
SplineSet
471 811 m 1
 471 0 l 1
 321 0 l 1
 150 421 l 1
 150 0 l 1
 0 0 l 1
 0 811 l 1
 150 811 l 1
 321 366 l 1
 321 811 l 1
 471 811 l 1
EndSplineSet
Validated: 1
EndChar

StartChar: Z
Encoding: 90 90 17
Width: 471
VWidth: 0
Flags: HMW
LayerCount: 2
Back
SplineSet
382 304 m 2
 354 356 322 407 322 407 c 1
 322 407 351 450 379 502 c 2
 472 671 l 1
 472 811 l 1
 393 811 l 1
 293 635 l 2
 264 583 236 529 236 529 c 1
 236 529 208 583 179 635 c 2
 79 811 l 1
 0 811 l 1
 0 671 l 1
 93 502 l 2
 121 450 149 407 149 407 c 1
 149 407 118 356 90 304 c 2
 0 140 l 1
 0 0 l 1
 81 0 l 25
 179 175 l 2
 207 227 236 281 236 281 c 1
 236 281 265 227 293 175 c 2
 391 0 l 25
 472 0 l 1
 472 140 l 1
 382 304 l 2
EndSplineSet
Fore
SplineSet
0 671 m 1
 0 811 l 1
 471 811 l 1
 471 671 l 1
 179 140 l 1
 471 140 l 1
 471 0 l 1
 0 0 l 1
 0 140 l 1
 293 671 l 1
 0 671 l 1
EndSplineSet
Validated: 1
EndChar

StartChar: Y
Encoding: 89 89 18
Width: 502
VWidth: 0
Flags: HMW
LayerCount: 2
Back
SplineSet
343 407 m 5
 343 407 373 450 403 502 c 6
 502 671 l 5
 502 811 l 5
 418 811 l 5
 312 635 l 6
 281 583 251 529 251 529 c 5
 251 529 221 583 190 635 c 6
 84 811 l 5
 0 811 l 5
 0 671 l 5
 99 502 l 6
 129 450 159 407 159 407 c 5
 176 407 l 5
 176 0 l 5
 326 0 l 5
 326 407 l 5
 343 407 l 5
EndSplineSet
Fore
SplineSet
326 382 m 1
 326 0 l 1
 176 0 l 1
 176 382 l 1
 176 382 129 450 99 502 c 2
 0 671 l 1
 0 811 l 1
 84 811 l 1
 190 635 l 2
 221 583 251 531 251 531 c 1
 251 531 281 583 312 635 c 2
 418 811 l 1
 502 811 l 1
 502 671 l 1
 403 502 l 2
 373 450 326 382 326 382 c 1
EndSplineSet
Validated: 1
EndChar

StartChar: X
Encoding: 88 88 19
Width: 502
VWidth: 0
Flags: HMW
LayerCount: 2
Back
SplineSet
0 140 m 1
 0 0 l 25
 104 0 l 25
 251 229 l 25
 398 0 l 29
 502 0 l 1
 502 140 l 1
 326 411 l 1
 326 811 l 1
 176 811 l 1
 176 411 l 1
 0 140 l 1
0 140 m 1049
0 140 m 1025
0 671 m 1
 176 400 l 1
 176 0 l 1
 326 0 l 1
 326 400 l 1
 502 671 l 1
 502 811 l 1
 398 811 l 25
 251 582 l 25
 104 811 l 25
 0 811 l 25
 0 671 l 1
0 671 m 1049
0 671 m 1025
EndSplineSet
Fore
SplineSet
406 304 m 2
 502 140 l 1
 502 0 l 1
 416 0 l 25
 312 175 l 2
 282 227 251 281 251 281 c 1
 251 281 220 227 190 175 c 2
 86 0 l 25
 0 0 l 1
 0 140 l 1
 96 304 l 2
 126 356 159 407 159 407 c 1
 159 407 129 450 99 502 c 2
 0 671 l 1
 0 811 l 1
 84 811 l 1
 190 635 l 2
 221 583 251 529 251 529 c 1
 251 529 281 583 312 635 c 2
 418 811 l 1
 502 811 l 1
 502 671 l 1
 403 502 l 2
 373 450 343 407 343 407 c 1
 343 407 376 356 406 304 c 2
EndSplineSet
Validated: 1
EndChar

StartChar: W
Encoding: 87 87 20
Width: 792
VWidth: 0
Flags: HMW
LayerCount: 2
Fore
SplineSet
792 0 m 9
 0 0 l 17
 0 811 l 1
 150 811 l 1
 150 140 l 1
 321 140 l 1
 321 811 l 1
 471 811 l 1
 471 140 l 1
 642 140 l 1
 642 811 l 1
 792 811 l 1
 792 0 l 9
EndSplineSet
Validated: 1
EndChar

StartChar: V
Encoding: 86 86 21
Width: 502
VWidth: 0
Flags: HMW
LayerCount: 2
Fore
SplineSet
0 671 m 25
 0 811 l 25
 127 811 l 25
 251 333 l 25
 375 811 l 25
 502 811 l 1
 502 671 l 1
 317 0 l 1
 185 0 l 25
 0 671 l 25
EndSplineSet
Validated: 1
EndChar

StartChar: S
Encoding: 83 83 22
Width: 465
VWidth: 0
Flags: HMW
LayerCount: 2
Fore
SplineSet
0 344 m 1
 0 811 l 1
 465 811 l 1
 465 671 l 1
 144 671 l 1
 144 484 l 1
 465 484 l 1
 465 0 l 1
 0 0 l 25
 0 140 l 25
 321 140 l 25
 321 344 l 25
 0 344 l 1
EndSplineSet
Validated: 1
EndChar

StartChar: R
Encoding: 82 82 23
Width: 465
VWidth: 0
Flags: HMW
LayerCount: 2
Fore
SplineSet
0 0 m 1
 0 811 l 1
 465 811 l 1
 465 344 l 1
 288 344 l 1
 465 140 l 1
 465 0 l 1
 375 0 l 1
 150 248 l 1
 150 0 l 1
 0 0 l 1
150 484 m 1
 321 484 l 1
 321 671 l 1
 150 671 l 1
 150 484 l 1
EndSplineSet
Validated: 1
EndChar

StartChar: Q
Encoding: 81 81 24
Width: 471
VWidth: 0
Flags: HMW
LayerCount: 2
Fore
SplineSet
150 140 m 1
 252 140 l 1
 187 214 l 1
 282 302 l 1
 321 255 l 1
 321 671 l 1
 150 671 l 1
 150 140 l 1
0 0 m 1
 0 811 l 1
 471 811 l 1
 471 0 l 1
 0 0 l 1
EndSplineSet
Validated: 1
EndChar

StartChar: P
Encoding: 80 80 25
Width: 465
VWidth: 0
Flags: HMW
LayerCount: 2
Fore
SplineSet
150 484 m 1
 321 484 l 1
 321 671 l 1
 150 671 l 1
 150 484 l 1
0 0 m 1
 0 811 l 1
 465 811 l 1
 465 344 l 1
 150 344 l 1
 150 0 l 1
 0 0 l 1
EndSplineSet
Validated: 1
EndChar

StartChar: a
Encoding: 97 97 26
Width: 471
VWidth: 0
Flags: MW
LayerCount: 2
Fore
SplineSet
321 484 m 1
 321 671 l 1
 150 671 l 1
 150 484 l 1
 321 484 l 1
471 811 m 1
 471 0 l 1
 321 0 l 1
 321 344 l 1
 150 344 l 1
 150 0 l 1
 0 0 l 1
 0 811 l 1
 471 811 l 1
EndSplineSet
Validated: 1
EndChar

StartChar: b
Encoding: 98 98 27
Width: 471
VWidth: 0
Flags: MW
LayerCount: 2
Fore
SplineSet
471 0 m 1
 0 0 l 25
 0 811 l 1
 404 811 l 1
 471 714 l 1
 471 0 l 1
150 140 m 1
 321 140 l 1
 321 344 l 1
 150 344 l 1
 150 140 l 1
150 484 m 1
 321 484 l 1
 321 639 l 1
 299 671 l 1
 150 671 l 1
 150 484 l 1
EndSplineSet
Validated: 1
EndChar

StartChar: c
Encoding: 99 99 28
Width: 432
VWidth: 0
Flags: MW
LayerCount: 2
Fore
SplineSet
432 0 m 1
 0 0 l 1
 0 811 l 1
 432 811 l 1
 432 671 l 1
 149 671 l 1
 149 140 l 1
 432 140 l 1
 432 0 l 1
EndSplineSet
Validated: 1
EndChar

StartChar: d
Encoding: 100 100 29
Width: 471
VWidth: 0
Flags: MW
LayerCount: 2
Fore
SplineSet
471 0 m 1
 0 0 l 25
 0 811 l 1
 404 811 l 1
 471 714 l 1
 471 0 l 1
321 639 m 1
 299 671 l 1
 150 671 l 1
 150 140 l 1
 321 140 l 1
 321 639 l 1
EndSplineSet
Validated: 1
EndChar

StartChar: e
Encoding: 101 101 30
Width: 471
VWidth: 0
Flags: MW
LayerCount: 2
Fore
SplineSet
394 344 m 1
 150 344 l 1
 150 140 l 1
 471 140 l 1
 471 0 l 1
 0 0 l 1
 0 811 l 1
 471 811 l 1
 471 671 l 1
 150 671 l 1
 150 484 l 1
 394 484 l 1
 394 344 l 1
EndSplineSet
Validated: 1
EndChar

StartChar: f
Encoding: 102 102 31
Width: 471
VWidth: 0
Flags: MW
LayerCount: 2
Fore
SplineSet
344 344 m 1
 150 344 l 1
 150 0 l 1
 0 0 l 1
 0 811 l 1
 471 811 l 1
 471 671 l 1
 150 671 l 1
 150 484 l 1
 344 484 l 1
 344 344 l 1
EndSplineSet
Validated: 1
EndChar

StartChar: g
Encoding: 103 103 32
Width: 502
VWidth: 0
Flags: MW
LayerCount: 2
Fore
SplineSet
150 671 m 1
 150 140 l 1
 362 140 l 1
 362 324 l 1
 261 324 l 1
 261 484 l 1
 502 484 l 25
 502 0 l 17
 0 0 l 1
 0 811 l 1
 502 811 l 9
 502 671 l 25
 150 671 l 1
EndSplineSet
Validated: 1
EndChar

StartChar: h
Encoding: 104 104 33
Width: 502
VWidth: 0
Flags: MW
LayerCount: 2
Fore
SplineSet
502 811 m 1
 502 0 l 1
 352 0 l 1
 352 344 l 1
 150 344 l 1
 150 0 l 1
 0 0 l 1
 0 811 l 1
 150 811 l 1
 150 484 l 1
 352 484 l 1
 352 811 l 1
 502 811 l 1
EndSplineSet
Validated: 1
EndChar

StartChar: i
Encoding: 105 105 34
Width: 372
VWidth: 0
Flags: MW
LayerCount: 2
Fore
SplineSet
372 0 m 1
 0 0 l 1
 0 140 l 1
 111 140 l 1
 111 671 l 1
 0 671 l 1
 0 811 l 1
 372 811 l 1
 372 671 l 1
 261 671 l 1
 261 140 l 1
 372 140 l 1
 372 0 l 1
EndSplineSet
Validated: 1
EndChar

StartChar: j
Encoding: 106 106 35
Width: 492
VWidth: 0
Flags: MW
LayerCount: 2
Fore
SplineSet
0 811 m 1
 492 811 l 25
 492 671 l 1
 339 671 l 25
 339 0 l 1
 -12 0 l 1
 -12 140 l 1
 189 140 l 1
 189 671 l 9
 0 671 l 25
 0 811 l 1
EndSplineSet
Validated: 1
EndChar

StartChar: k
Encoding: 107 107 36
Width: 471
VWidth: 0
Flags: MW
LayerCount: 2
Fore
SplineSet
0 811 m 1
 150 811 l 1
 150 456 l 1
 366 811 l 1
 471 811 l 1
 471 671 l 1
 316 426 l 1
 471 150 l 1
 471 0 l 1
 372 0 l 1
 209 274 l 1
 150 162 l 1
 150 0 l 1
 0 0 l 1
 0 811 l 1
EndSplineSet
Validated: 1
EndChar

StartChar: l
Encoding: 108 108 37
Width: 432
VWidth: 0
Flags: MW
LayerCount: 2
Fore
SplineSet
432 0 m 1
 0 0 l 1
 0 811 l 1
 149 811 l 1
 149 140 l 1
 432 140 l 1
 432 0 l 1
EndSplineSet
Validated: 1
EndChar

StartChar: m
Encoding: 109 109 38
Width: 792
VWidth: 0
Flags: MW
LayerCount: 2
Fore
SplineSet
792 811 m 17
 792 0 l 1
 640 0 l 1
 640 671 l 1
 471 671 l 1
 471 0 l 1
 321 0 l 1
 321 671 l 1
 150 671 l 1
 150 0 l 1
 0 0 l 1
 0 811 l 9
 792 811 l 17
EndSplineSet
Validated: 1
EndChar

StartChar: n
Encoding: 110 110 39
Width: 471
VWidth: 0
Flags: MW
LayerCount: 2
Fore
SplineSet
471 811 m 1
 471 0 l 1
 321 0 l 1
 150 421 l 1
 150 0 l 1
 0 0 l 1
 0 811 l 1
 150 811 l 1
 321 366 l 1
 321 811 l 1
 471 811 l 1
EndSplineSet
Validated: 1
EndChar

StartChar: o
Encoding: 111 111 40
Width: 471
VWidth: 0
Flags: MW
LayerCount: 2
Fore
SplineSet
150 140 m 1
 321 140 l 1
 321 671 l 1
 150 671 l 1
 150 140 l 1
0 0 m 1
 0 811 l 1
 471 811 l 1
 471 0 l 1
 0 0 l 1
EndSplineSet
Validated: 1
EndChar

StartChar: p
Encoding: 112 112 41
Width: 465
VWidth: 0
Flags: MW
LayerCount: 2
Fore
SplineSet
150 484 m 1
 321 484 l 1
 321 671 l 1
 150 671 l 1
 150 484 l 1
0 0 m 1
 0 811 l 1
 465 811 l 1
 465 344 l 1
 150 344 l 1
 150 0 l 1
 0 0 l 1
EndSplineSet
Validated: 1
EndChar

StartChar: q
Encoding: 113 113 42
Width: 471
VWidth: 0
Flags: MW
LayerCount: 2
Fore
SplineSet
150 140 m 1
 252 140 l 1
 187 214 l 1
 282 302 l 1
 321 255 l 1
 321 671 l 1
 150 671 l 1
 150 140 l 1
0 0 m 1
 0 811 l 1
 471 811 l 1
 471 0 l 1
 0 0 l 1
EndSplineSet
Validated: 1
EndChar

StartChar: r
Encoding: 114 114 43
Width: 465
VWidth: 0
Flags: MW
LayerCount: 2
Fore
SplineSet
0 0 m 1
 0 811 l 1
 465 811 l 1
 465 344 l 1
 288 344 l 1
 465 140 l 1
 465 0 l 1
 375 0 l 1
 150 248 l 1
 150 0 l 1
 0 0 l 1
150 484 m 1
 321 484 l 1
 321 671 l 1
 150 671 l 1
 150 484 l 1
EndSplineSet
Validated: 1
EndChar

StartChar: s
Encoding: 115 115 44
Width: 465
VWidth: 0
Flags: MW
LayerCount: 2
Fore
SplineSet
0 344 m 1
 0 811 l 1
 465 811 l 1
 465 671 l 1
 144 671 l 1
 144 484 l 1
 465 484 l 1
 465 0 l 1
 0 0 l 25
 0 140 l 25
 321 140 l 25
 321 344 l 25
 0 344 l 1
EndSplineSet
Validated: 1
EndChar

StartChar: t
Encoding: 116 116 45
Width: 492
VWidth: 0
Flags: MW
LayerCount: 2
Fore
SplineSet
0 811 m 1
 492 811 l 25
 492 671 l 1
 321 671 l 25
 321 0 l 1
 171 0 l 25
 171 671 l 25
 0 671 l 25
 0 811 l 1
EndSplineSet
Validated: 1
EndChar

StartChar: u
Encoding: 117 117 46
Width: 471
VWidth: 0
Flags: MW
LayerCount: 2
Fore
SplineSet
0 0 m 1
 0 811 l 1
 150 811 l 1
 150 140 l 1
 321 140 l 1
 321 811 l 1
 471 811 l 1
 471 0 l 1
 0 0 l 1
EndSplineSet
Validated: 1
EndChar

StartChar: v
Encoding: 118 118 47
Width: 502
VWidth: 0
Flags: MW
LayerCount: 2
Fore
SplineSet
0 671 m 25
 0 811 l 25
 127 811 l 25
 251 333 l 25
 375 811 l 25
 502 811 l 1
 502 671 l 1
 317 0 l 1
 185 0 l 25
 0 671 l 25
EndSplineSet
Validated: 1
EndChar

StartChar: w
Encoding: 119 119 48
Width: 792
VWidth: 0
Flags: MW
LayerCount: 2
Fore
SplineSet
792 0 m 9
 0 0 l 17
 0 811 l 1
 150 811 l 1
 150 140 l 1
 321 140 l 1
 321 811 l 1
 471 811 l 1
 471 140 l 1
 642 140 l 1
 642 811 l 1
 792 811 l 1
 792 0 l 9
EndSplineSet
Validated: 1
EndChar

StartChar: x
Encoding: 120 120 49
Width: 502
VWidth: 0
Flags: MW
LayerCount: 2
Fore
SplineSet
406 304 m 2
 502 140 l 1
 502 0 l 1
 416 0 l 25
 312 175 l 2
 282 227 251 281 251 281 c 1
 251 281 220 227 190 175 c 2
 86 0 l 25
 0 0 l 1
 0 140 l 1
 96 304 l 2
 126 356 159 407 159 407 c 1
 159 407 129 450 99 502 c 2
 0 671 l 1
 0 811 l 1
 84 811 l 1
 190 635 l 2
 221 583 251 529 251 529 c 1
 251 529 281 583 312 635 c 2
 418 811 l 1
 502 811 l 1
 502 671 l 1
 403 502 l 2
 373 450 343 407 343 407 c 1
 343 407 376 356 406 304 c 2
EndSplineSet
Validated: 1
EndChar

StartChar: y
Encoding: 121 121 50
Width: 502
VWidth: 0
Flags: MW
LayerCount: 2
Fore
SplineSet
326 382 m 1
 326 0 l 1
 176 0 l 1
 176 382 l 1
 176 382 129 450 99 502 c 2
 0 671 l 1
 0 811 l 1
 84 811 l 1
 190 635 l 2
 221 583 251 531 251 531 c 1
 251 531 281 583 312 635 c 2
 418 811 l 1
 502 811 l 1
 502 671 l 1
 403 502 l 2
 373 450 326 382 326 382 c 1
EndSplineSet
Validated: 1
EndChar

StartChar: z
Encoding: 122 122 51
Width: 471
VWidth: 0
Flags: MW
LayerCount: 2
Fore
SplineSet
0 671 m 1
 0 811 l 1
 471 811 l 1
 471 671 l 1
 179 140 l 1
 471 140 l 1
 471 0 l 1
 0 0 l 1
 0 140 l 1
 293 671 l 1
 0 671 l 1
EndSplineSet
Validated: 1
EndChar

StartChar: one
Encoding: 49 49 53
Width: 492
VWidth: 0
Flags: W
HStem: 0 140<0 189 339 492> 671 140<0 189>
VStem: 189 150<140 671>
LayerCount: 2
Fore
SplineSet
-39 414 m 1054
492 0 m 1
 0 0 l 1
 0 140 l 1
 189 140 l 1
 189 671 l 9
 0 671 l 25
 0 811 l 1
 339 811 l 1
 339 140 l 1
 492 140 l 1
 492 0 l 1
EndSplineSet
Validated: 1
EndChar

StartChar: two
Encoding: 50 50 54
Width: 465
VWidth: 0
Flags: W
HStem: 0 140<144 465> 344 140<144 321> 671 140<0 321>
VStem: 0 144<140 344> 321 144<484 671>
LayerCount: 2
Fore
SplineSet
465 344 m 5
 144 344 l 29
 144 140 l 29
 465 140 l 29
 465 0 l 25
 0 0 l 1
 0 484 l 5
 321 484 l 5
 321 671 l 5
 0 671 l 5
 0 811 l 5
 465 811 l 5
 465 344 l 5
EndSplineSet
Validated: 1
EndChar

StartChar: three
Encoding: 51 51 55
Width: 471
VWidth: 0
Flags: W
HStem: 0 140<0 321> 344 140<77 321> 671 140<0 321>
VStem: 321 150<140 344 484 671>
LayerCount: 2
Fore
SplineSet
77 344 m 1
 77 484 l 1
 321 484 l 1
 321 671 l 1
 0 671 l 1
 0 811 l 1
 471 811 l 1
 471 0 l 1
 0 0 l 1
 0 140 l 1
 321 140 l 1
 321 344 l 1
 77 344 l 1
EndSplineSet
Validated: 1
EndChar

StartChar: four
Encoding: 52 52 56
Width: 465
VWidth: 0
Flags: W
HStem: 0 21G<321 465> 344 140<144 321> 791 20G<0 144 321 465>
VStem: 0 144<484 811> 321 144<0 344 484 811>
LayerCount: 2
Fore
SplineSet
465 0 m 1
 321 0 l 1
 321 344 l 1
 0 344 l 1
 0 811 l 1
 144 811 l 1
 144 484 l 1
 321 484 l 1
 321 811 l 1
 465 811 l 1
 465 0 l 1
EndSplineSet
Validated: 1
EndChar

StartChar: five
Encoding: 53 53 57
Width: 465
VWidth: 0
Flags: W
HStem: 0 140<0 321> 344 140<144 321> 671 140<144 465>
VStem: 0 144<484 671> 321 144<140 344>
LayerCount: 2
Fore
SplineSet
0 344 m 1
 0 811 l 1
 465 811 l 1
 465 671 l 1
 144 671 l 1
 144 484 l 1
 465 484 l 1
 465 0 l 1
 0 0 l 25
 0 140 l 25
 321 140 l 25
 321 344 l 25
 0 344 l 1
EndSplineSet
Validated: 1
EndChar

StartChar: six
Encoding: 54 54 58
Width: 465
VWidth: 0
Flags: W
HStem: 0 140<144 321> 344 140<144 321> 671 140<144 465>
VStem: 0 144<140 344 484 671> 321 144<140 344>
LayerCount: 2
Fore
SplineSet
144 140 m 1
 321 140 l 9
 321 344 l 17
 144 344 l 1
 144 140 l 1
0 811 m 1
 465 811 l 1
 465 671 l 1
 144 671 l 1
 144 484 l 1
 465 484 l 1
 465 0 l 1
 0 0 l 25
 0 811 l 1
EndSplineSet
Validated: 1
EndChar

StartChar: seven
Encoding: 55 55 59
Width: 471
VWidth: 0
Flags: W
HStem: 0 21G<0 112.999> 671 140<0 293>
LayerCount: 2
Fore
SplineSet
0 671 m 1
 0 811 l 1
 471 811 l 1
 471 671 l 1
 102 0 l 1
 0 0 l 1
 0 140 l 1
 293 671 l 1
 0 671 l 1
EndSplineSet
Validated: 1
EndChar

StartChar: eight
Encoding: 56 56 60
Width: 465
VWidth: 0
Flags: W
HStem: 0 140<144 321> 344 140<144 321> 671 140<144 321>
VStem: 0 144<140 344 484 671> 321 144<140 344 484 671>
LayerCount: 2
Fore
SplineSet
144 140 m 1
 321 140 l 9
 321 344 l 17
 144 344 l 1
 144 140 l 1
321 671 m 1
 144 671 l 1
 144 484 l 1
 321 484 l 1
 321 671 l 1
465 0 m 5
 0 0 l 25
 0 811 l 1
 465 811 l 5
 465 0 l 5
EndSplineSet
Validated: 1
EndChar

StartChar: nine
Encoding: 57 57 61
Width: 465
VWidth: 0
Flags: W
HStem: 0 140<0 321> 344 140<144 321> 671 140<144 321>
VStem: 0 144<484 671> 321 144<140 344 484 671>
LayerCount: 2
Fore
SplineSet
465 0 m 1
 0 0 l 25
 0 140 l 25
 321 140 l 25
 321 344 l 25
 0 344 l 1
 0 811 l 1
 465 811 l 1
 465 0 l 1
321 671 m 1
 144 671 l 1
 144 484 l 1
 321 484 l 1
 321 671 l 1
EndSplineSet
Validated: 1
EndChar

StartChar: zero
Encoding: 48 48 62
Width: 465
VWidth: 0
Flags: W
HStem: 0 140<223 321> 671 140<144 242>
VStem: 0 144<377 671> 321 144<140 434>
LayerCount: 2
Fore
SplineSet
242 671 m 5
 144 671 l 1
 144 377 l 1
 242 671 l 5
223 140 m 1
 321 140 l 1
 321 434 l 1
 223 140 l 1
465 0 m 1
 0 0 l 25
 0 811 l 1
 465 811 l 1
 465 0 l 1
EndSplineSet
Validated: 1
EndChar

StartChar: period
Encoding: 46 46 63
Width: 177
VWidth: 0
Flags: W
HStem: 0 177<0 177>
VStem: 0 177<0 177>
LayerCount: 2
Fore
SplineSet
0 177 m 5
 177 177 l 5
 177 0 l 1
 0 0 l 1
 0 177 l 5
177 0 m 1025
177 177 m 1029
0 177 m 1029
0 0 m 1025
EndSplineSet
Validated: 1
EndChar

StartChar: slash
Encoding: 47 47 64
Width: 471
VWidth: 0
Flags: W
HStem: 0 21G<0 112.999> 791 20G<358.001 471>
LayerCount: 2
Fore
SplineSet
369 811 m 1
 471 811 l 1
 471 671 l 1
 102 0 l 1
 0 0 l 1
 0 140 l 1
 369 811 l 1
EndSplineSet
Validated: 1
EndChar

StartChar: colon
Encoding: 58 58 65
Width: 177
VWidth: 0
Flags: W
HStem: 140 204<0 177> 484 187<0 177>
VStem: 0 177<140 344 484 671>
LayerCount: 2
Fore
SplineSet
0 344 m 1
 177 344 l 1
 177 140 l 5
 0 140 l 1
 0 344 l 1
0 671 m 1
 177 671 l 1
 177 484 l 1
 0 484 l 1
 0 671 l 1
177 140 m 1029
177 344 m 1025
0 344 m 1025
0 140 m 1025
0 671 m 1025
0 484 m 1025
177 484 m 1025
177 671 m 1025
EndSplineSet
Validated: 1
EndChar

StartChar: comma
Encoding: 44 44 66
Width: 177
VWidth: 0
Flags: W
HStem: -41 218<146.055 177>
VStem: 0 177<0 177>
LayerCount: 2
Fore
SplineSet
0 177 m 5
 177 177 l 5
 177 -41 l 1
 0 0 l 1
 0 177 l 5
177 177 m 1029
0 177 m 1029
0 0 m 1025
EndSplineSet
Validated: 1
EndChar

StartChar: semicolon
Encoding: 59 59 67
Width: 177
VWidth: 0
Flags: W
HStem: 484 187<0 177>
VStem: 0 177<140 344 484 671>
LayerCount: 2
Fore
SplineSet
0 344 m 1
 177 344 l 1
 177 99 l 1
 0 140 l 1
 0 344 l 1
0 671 m 1
 177 671 l 1
 177 484 l 1
 0 484 l 1
 0 671 l 1
177 99 m 1025
177 344 m 1025
0 344 m 1025
0 140 m 1025
0 671 m 1025
0 484 m 1025
177 484 m 1025
177 671 m 1025
177 99 m 1025
177 99 m 1025
EndSplineSet
Validated: 1
EndChar

StartChar: hyphen
Encoding: 45 45 68
Width: 321
VWidth: 0
Flags: W
HStem: 344 140<0 321>
VStem: 0 321<344 484>
LayerCount: 2
Fore
SplineSet
321 484 m 5
 321 344 l 5
 0 344 l 5
 0 484 l 5
 321 484 l 5
EndSplineSet
Validated: 1
EndChar

StartChar: underscore
Encoding: 95 95 69
Width: 465
VWidth: 0
Flags: W
HStem: 0 140<0 465>
LayerCount: 2
Fore
SplineSet
465 140 m 5
 465 0 l 1
 0 0 l 25
 0 140 l 29
 465 140 l 5
EndSplineSet
Validated: 1
EndChar

StartChar: quotedbl
Encoding: 34 34 70
Width: 354
VWidth: 0
Flags: W
HStem: 566 245<-30.9448 0>
LayerCount: 2
Fore
SplineSet
0 811 m 1
 354 811 l 1
 354 566 l 1
 177 607 l 1
 177 566 l 1
 0 607 l 1
 0 811 l 1
0 811 m 1025
0 607 m 1025
354 811 m 1025
177 607 m 1025
EndSplineSet
Validated: 1
EndChar

StartChar: question
Encoding: 63 63 71
Width: 465
VWidth: 0
Flags: W
HStem: 0 140<144 321> 344 139<211 321> 671 140<0 321>
VStem: 144 177<0 140> 321 144<484 671>
LayerCount: 2
Fore
SplineSet
144 140 m 1xf0
 321 140 l 1
 321 0 l 1
 144 0 l 1
 144 140 l 1xf0
321 0 m 1025
321 140 m 1025
144 140 m 1025
144 0 m 1025
144 386 m 1
 211 483 l 1
 321 484 l 1
 321 671 l 1
 0 671 l 1
 0 811 l 1
 465 811 l 1
 465 344 l 1xe8
 144 344 l 17
 144 386 l 1
EndSplineSet
Validated: 1
EndChar

StartChar: exclam
Encoding: 33 33 72
Width: 177
VWidth: 0
Flags: W
HStem: 0 140<0 177> 791 20G<0 177>
VStem: 0 177<0 140 344 811>
LayerCount: 2
Fore
SplineSet
0 140 m 1
 177 140 l 1
 177 0 l 1
 0 0 l 1
 0 140 l 1
0 811 m 1
 177 811 l 1
 177 344 l 1
 0 344 l 1
 0 811 l 1
177 0 m 1025
177 140 m 1025
0 140 m 1025
0 0 m 1025
0 811 m 1025
0 344 m 1025
177 344 m 1025
177 811 m 1025
EndSplineSet
Validated: 1
EndChar

StartChar: quotesingle
Encoding: 39 39 73
Width: 177
VWidth: 0
Flags: W
HStem: 566 245<146.055 177>
VStem: 0 177<607 811>
LayerCount: 2
Fore
SplineSet
0 811 m 1
 177 811 l 1
 177 566 l 1
 0 607 l 1
 0 811 l 1
177 811 m 1025
0 811 m 1025
0 607 m 1025
EndSplineSet
Validated: 1
EndChar

StartChar: plus
Encoding: 43 43 74
Width: 551
VWidth: 0
Flags: W
HStem: 344 140<0 187 364 551>
VStem: 187 177<140 344 484 671>
LayerCount: 2
Fore
SplineSet
187 344 m 1
 0 344 l 25
 0 484 l 25
 187 484 l 1
 187 671 l 1
 364 671 l 1
 364 484 l 1
 551 484 l 25
 551 344 l 25
 364 344 l 1
 364 140 l 1
 187 140 l 1
 187 344 l 1
364 140 m 1025
187 344 m 1025
187 140 m 1025
187 671 m 1025
187 484 m 1025
364 484 m 1025
364 671 m 1025
EndSplineSet
Validated: 1
EndChar

StartChar: dollar
Encoding: 36 36 75
Width: 465
VWidth: 0
Flags: W
HStem: -42 182<157 307> 0 140<0 157 307 321> 344 140<144 321> 671 181<156 307> 671 140<144 156 307 465>
VStem: 0 144<484 671> 157 150<-42 0 811 852> 321 144<140 344>
LayerCount: 2
Fore
SplineSet
307 811 m 1x2f
 465 811 l 1
 465 671 l 1
 144 671 l 1
 144 484 l 1
 465 484 l 1
 465 0 l 1
 307 0 l 1x6f
 307 -42 l 1
 157 -42 l 1xa7
 157 0 l 1
 0 0 l 9
 0 140 l 25
 321 140 l 25
 321 344 l 25
 0 344 l 1
 0 811 l 1
 156 811 l 1x6f
 156 852 l 25
 307 852 l 25x37
 307 811 l 1x2f
307 0 m 1025
157 0 m 1025
EndSplineSet
Validated: 1
EndChar

StartChar: asterisk
Encoding: 42 42 76
Width: 142
VWidth: 0
Flags: W
HStem: 344 140<0 141>
VStem: 0 141<344 484>
LayerCount: 2
Fore
SplineSet
0 344 m 1
 0 484 l 1
 141 484 l 1
 141 344 l 1
 0 344 l 1
141 344 m 1025
0 344 m 1025
0 484 m 1025
141 484 m 1025
EndSplineSet
Validated: 1
EndChar

StartChar: equal
Encoding: 61 61 77
Width: 331
VWidth: 0
Flags: W
HStem: 140 204<0 331> 484 187<0 331>
VStem: 0 331<140 344 484 671>
LayerCount: 2
Fore
SplineSet
0 344 m 1
 331 344 l 1
 331 140 l 1
 0 140 l 1
 0 344 l 1
0 671 m 1
 331 671 l 1
 331 484 l 1
 0 484 l 1
 0 671 l 1
331 140 m 1025
331 344 m 1025
0 344 m 1025
0 140 m 1025
0 671 m 1025
0 484 m 1025
331 484 m 1025
331 671 m 1025
EndSplineSet
Validated: 1
EndChar
